# xmcd CD database file
#
# Track frame offsets:
#	150
#	11446
#	26326
#	40524
#	61199
#	72241
#	91408
#	105245
#	122556
#	143607
#	154352
#	176134
#
# Disc length: 2574 seconds
#
# Revision: 2
# Processed by: cddbd v1.5.2PL0 Copyright (c) Steve Scherf et al.
# Submitted via: CDex 1.70beta2
#
DISCID=8d0a0c0c
DTITLE=Tom Gäbel - Introducing Myself
DYEAR=2005
DGENRE=Jazz
TTITLE0=Let The Good Times Roll
TTITLE1=Up Up And Away
TTITLE2=Make Someone Happy
TTITLE3=Where Do I Begin (Love Story)
TTITLE4=I`m Sitting On Top Of The World
TTITLE5=The Summertime
TTITLE6=Hey Look Me Over
TTITLE7=Once I Fell In Love
TTITLE8=Where Do You Start
TTITLE9=Ac-Cent-Tchu-Ate The Positive
TTITLE10=Look At Me One Last Time
TTITLE11=Walk Between The Raindrops
EXTD=YEAR: 2005
EXTT0=
EXTT1=
EXTT2=
EXTT3=
EXTT4=
EXTT5=
EXTT6=
EXTT7=
EXTT8=
EXTT9=
EXTT10=
EXTT11=
PLAYORDER=
